# xmcd
#
# Track frame offsets:
#	150
#	22975
#	37157
#	58232
#	69252
#	86607
#	107097
#	128530
#	150200
#	184680
#	199055
#	213380
#	235050
#	253262
#	272607
#	285592
#	302415
#	327445
#
# Disc length: 4513 seconds
#
# Revision: 1
# Processed by: cddbd v1.4PL0 Copyright (c) Steve Scherf et al.
# Submitted via: CDmax 1.8
#
DISCID=f5119f12
DTITLE=Various Artist - Wrightegaarden 10 år
DYEAR=1900
DGENRE=Blues
TTITLE0=The Band: Back To Memphis
TTITLE1=Buffy Sainte-Marie: I Can't Take It No More
TTITLE2=Eric Andersen: Higher Ground
TTITLE3=Johnny And The Roccos: The Worryin' Kind
TTITLE4=Stephen Ackles: Then I'll Be Over You
TTITLE5=Reidar Larsen: Sail Away
TTITLE6=The Greg Trooper Band: Pink Motel
TTITLE7=Terje Sending with Nina Gromstad: Train To Birmingham
TTITLE8=Jonas Fjeld Band: The Bells Are Ringing For You Now
TTITLE9=Morten Harket: Evig Ung
TTITLE10=Jørn Hoel: Let Your Hair Down
TTITLE11=Notodden Blues Band: I'd Rather Go Blind
TTITLE12=The Silver King Band: Walk My Blues Away
TTITLE13=Urban Honk: Jumping Blues
TTITLE14=The Troggs: I do, do, do
TTITLE15=The Tom Russel Band: St. Olavs Gate
TTITLE16=Thee Big Chief Jazz Band: Keeping Out Of Mischief Now
TTITLE17=Alf Cranner: Juleønske
EXTD=
EXTT0=
EXTT1=
EXTT2=
EXTT3=
EXTT4=
EXTT5=
EXTT6=
EXTT7=
EXTT8=
EXTT9=
EXTT10=
EXTT11=
EXTT12=
EXTT13=
EXTT14=
EXTT15=
EXTT16=
EXTT17=
PLAYORDER=
